# xmcd CD database file
#
# Track frame offsets:
#	150
#	37772
#	60663
#	87648
#	113015
#	142069
#	159867
#	181106
#	213769
#	236367
#	259142
#	288023
#
# Disc length: 4326 seconds
#
# Revision: 0
# Processed by: cddbd v1.4PL0 Copyright (c) Steve Scherf et al.
# Submitted via: CDex 1.50
#
DISCID=9710e40c
DTITLE=Tim Mac Brian - Emerald Forest
DYEAR=2002
DGENRE=New Age
TTITLE0=Emerald Forest
TTITLE1=Song Of The Reed
TTITLE2=The Memory Of The Old World
TTITLE3=The Breath Of The Forest
TTITLE4=The Way
TTITLE5=Between Heaven And Earth
TTITLE6=Ocean Of Secrets
TTITLE7=The Soul Of The Giants
TTITLE8=New Spring
TTITLE9=The Masters Of Time
TTITLE10=Raindrops
TTITLE11=Winds Of Oural
EXTD=YEAR: 2002
EXTT0=
EXTT1=
EXTT2=
EXTT3=
EXTT4=
EXTT5=
EXTT6=
EXTT7=
EXTT8=
EXTT9=
EXTT10=
EXTT11=
PLAYORDER=
